<?xml version="1.0" ?><svg viewBox="0 0 64 64" xmlns="http://www.w3.org/2000/svg"><defs><style>.cls-1{fill:#ecf0f1;}.cls-1,.cls-2,.cls-3{stroke:#434a54;stroke-linecap:round;stroke-linejoin:round;stroke-width:2px;}.cls-2{fill:#f1c40f;}.cls-3,.cls-4{fill:none;}</style></defs><title/><g data-name="katman 2" id="katman_2"><g id="icons"><path class="cls-1" d="M46,35V54a6,6,0,0,1-6,6H24a6,6,0,0,1-6-6V35"/><path class="cls-2" d="M18,35V18a6,6,0,0,1,6-6H40a6,6,0,0,1,6,6V35"/><path class="cls-3" d="M43,22.5V18a3,3,0,0,0-3-3H37"/><line class="cls-3" x1="43" x2="43" y1="49.92" y2="44"/><path class="cls-3" d="M43,54V53"/><path class="cls-3" d="M21,52.75V54a3,3,0,0,0,3,3h3"/><path class="cls-1" d="M28,6h8a2,2,0,0,1,2,2v4a0,0,0,0,1,0,0H26a0,0,0,0,1,0,0V8A2,2,0,0,1,28,6Z"/><line class="cls-3" x1="28" x2="36" y1="21" y2="21"/><line class="cls-3" x1="32" x2="32" y1="25" y2="17"/><line class="cls-3" x1="28" x2="36" y1="52" y2="52"/><line class="cls-3" x1="18" x2="21" y1="38" y2="38"/><line class="cls-3" x1="43" x2="46" y1="32" y2="32"/><line class="cls-3" x1="18" x2="30" y1="35" y2="35"/><line class="cls-3" x1="34" x2="46" y1="35" y2="35"/><rect class="cls-4" height="64" width="64"/></g></g></svg>